<svg width="413" height="413" fill="none" xmlns="http://www.w3.org/2000/svg"><g opacity=".04"><g opacity=".9" fill="#F8F8F8" clip-path="url(#clip0_1_475)"><path d="M461.093 357.46c.644-.312 1.287-.625 1.968-.938 4.67-2.316 10.334-5.295 14.729-7.63 4.431-2.445 10.169-6.012 14.491-8.678-56.512 34.325-120.156 48.195-189.11 41.223l19.462 2.037c2.316.146 4.374.256 6.267.348 6.598.127 14.318.2 21.909.033 4.632-.222 10.256-.553 18.05-1.033 3.842-.423 8.253-1.012 12.702-1.675 38.272-5.778 59.306-14.861 79.495-23.687h.037z"/><path d="M230.974 361.103c121.263 49.09 244.313-8.681 281.629-35.21.166-.129.35-.276.515-.405 1.895-1.489 4.231-3.382 6.033-4.816l3.661-3.07.184-.184c-20.601 17.097-188.417 108.438-335.083 20.02a466.304 466.304 0 005.97 4.097c10.361 6.027 24.378 13.432 35.364 18.797.588.257 1.14.514 1.709.753l.018.018z"/><path d="M534.934 306.627c.754-.754 1.527-1.453 2.299-2.225l.313-.312.368-.368 2.539-2.537c.735-.735 1.434-1.434 2.06-2.095l.11-.111c-15.195 14.67-310.273 147.535-440.205-51.661l.036.037c3.451 5.808 8.553 13.232 12.224 18.892 5.03 6.947 12.282 15.786 17.662 22.457 144.072 151.241 381.129 35.553 402.631 17.886l-.037.037z"/><path d="M74.062 180.531c80.404 254.381 442.14 129.205 478.625 107.437.202-.202.368-.441.57-.643l1.178-1.361c.202-.202.368-.441.552-.661 1.361-1.618 2.944-3.567 4.305-5.221.166-.202.35-.423.497-.643-60.697 8.281-116.946 35.953-178.358 41.018-30.053 2.487-100.453 8.271-165.903-12.634C84.591 265.977 69.218 171.195 64.993 128.04c.109 1.47.236 2.922.345 4.356l.619 7.205c1.919 12.222 5.12 28.414 7.977 40.507.055.166.092.313.128.46v-.037z"/><path d="M105.69-40.547c.092-.166.184-.294.258-.441-.24.386-.497.79-.736 1.14-1.694 2.646-3.774 6.268-5.302 9.006-3.185 5.644-7.235 13.254-9.887 19.172-1.62 3.603-3.83 8.42-5.304 12.095-1.769 4.412-3.943 10.367-5.583 14.834-1.658 4.558-3.593 10.79-4.83 15.476a435.522 435.522 0 00-4.464 18.785c-12.337 66.391-.034 140.882 53.19 185.535 125.532 105.313 335.586 53.702 414.674 34.279 18.249-4.476 29.051-5.709 32.407-3.7l.276-.387c2.208-3.198 4.895-7.316 7.012-10.569.074-.11.147-.221.239-.349.626-1.287-.052-3.364-.161-4.798-6.541-2.057-14.041-.769-53.235 7.399-100.832 21.026-208.055 36.465-308.842 7.204-227.52-66.016-146.642-298.59-61.61-347.79-18.038 7.998-34.446 23.256-48.102 43.109z"/><path d="M515.296 233.037c63.274-10.892 78.347-13.467 72.395 4.013.092-.166.184-.331.258-.478 1.252-2.353 2.614-5.11 3.958-7.776l2.652-5.514c8.899-24.318-16.229-20.509-76.211-11.364-66.379 10.103-149.007 22.671-240.621 11.825C7.315 191.7 59.86-10.359 153.792-83.657 38.19-9.233-33.941 327.57 515.315 233.057l-.019-.019z"/><path d="M507.696 181.796c76.378-10.104 105.017-13.859 95.889 19.943.092-.239.184-.478.258-.735 1.897-5.312 4.017-12.131 5.713-17.351 6.99-26.524-11.055-31.189-31.585-32.27-85.866-4.543-169.865 19.531-255.586 17.084C46.437 160.649 65.935.171 153.792-83.656 58.292-4.202-.988 249.028 507.696 181.796z"/><path d="M513.761 120.976c74.207-8.192 106.589-5.147 102.437 34.665 1.127-6.415 2.163-14.907 3.052-21.524a327.8 327.8 0 00.855-10.623c1.481-32.735-16.569-31.593-232.82-17.861C73.817 125.575 97.2-1.36 140.745-66.505 100.606-8.07 10.416 176.627 513.743 120.993l.018-.018z"/><path d="M441.506 64.048c123.304-13.366 174.088-13.87 179.153 35.68-.018-.312 0-.588-.018-.9-.251-7.242-1.014-16.432-1.541-23.508-.018-.165-.036-.294-.055-.46-6.006-44.937-51.415-53.181-193.949-35.254C53.231 86.356 133.842-54.87 153.792-83.656 138.28-63.675 14.519 110.312 441.506 64.048z"/><path d="M411.709 5.936C546.763-13.662 597.576-5.419 612.59 38.598c-.385-1.562-.788-3.106-1.172-4.594l-.385-1.49c-.293-1.065-.568-2.076-.843-3.087l-4.087-12.92c-.568-1.636-1.1-3.235-1.668-4.797-22.262-56.826-135.277-39.015-210.296-27.183-244.266 38.567-265.538-15.796-240.347-68.183C129.291-41.911 105.37 50.378 411.709 5.936z"/><path d="M370.692-42.653C485.75-62.615 557.99-71.266 589.211-23.172c-.954-1.764-1.89-3.51-2.807-5.201-3.597-6.285-7.818-13.195-11.14-18.727-33.723-45.337-104.679-34.628-217.661-13.434-74.634 14.019-213.572 40.07-203.811-23.086C123.316.308 309.533-32 370.692-42.616v-.037z"/><path d="M340.695-82.568c125.412-26.747 173.662-30.192 208.959 2.407-.643-.716-1.249-1.433-1.873-2.132l-8.061-8.545-8.228-7.865a185.905 185.905 0 00-2.864-2.609c-38.55-32.728-115.486-14.573-212.736 8.382-68.388 16.15-145.93 34.47-162.137 9.274 1.103 40.73 112.929 16.87 186.904 1.088h.036z"/><path d="M304.327-109.139c109.865-30.31 155.545-37.357 193.058-16.631-6.098-3.969-14.181-8.673-21.015-12.642-1.451-.79-2.866-1.58-4.317-2.37-41.007-18.226-100.444-1.324-201.58 30.105-71.518 22.216-96.611 28.01-116.663 27.002 21.11 10.197 75.399-4.755 150.536-25.482l-.019.018z"/><path d="M436.355-156.417c-.863-.312-1.745-.606-2.646-.919l-11.851-3.876-7.387-2.02c-1.36-.367-2.701-.716-4.079-1.065-23.063-4.977-49.829.909-85.459 12.054-58.85 18.408-113.886 46.263-171.159 68.605 20.313-4.506 53.61-16.845 95.769-32.457 111.842-41.43 150.668-49.855 186.812-40.285v-.037z"/></g></g><defs><clipPath id="clip0_1_475"><path fill="#fff" transform="rotate(-44.979 190.206 77.707)" d="M0 0h221.982v360.315H0z"/></clipPath></defs></svg>