<svg width="64" height="63" fill="none" xmlns="http://www.w3.org/2000/svg"><rect x=".303" y="-.002" width="63.22" height="62.992" rx="19" fill="#366AF3"/><g clip-path="url(#clip0_1533_10)"><path d="M29.298 38h5.406c.176-1.603.993-2.925 2.32-4.37.15-.162 1.109-1.155 1.222-1.297a8 8 0 10-12.493-.002c.115.142 1.076 1.137 1.224 1.298 1.328 1.446 2.145 2.768 2.321 4.371zm5.37 2.667h-5.334V42h5.334v-1.333zM23.673 34a10.667 10.667 0 1116.653.003c-.826 1.029-2.992 2.664-2.992 4.664V42a2.667 2.667 0 01-2.666 2.667h-5.334A2.667 2.667 0 0126.668 42v-3.333c0-2-2.167-3.635-2.995-4.667zm9.661-6.661h3.334l-6 8v-5.334h-3.334l6-8.005v5.34-.001z" fill="#fff"/></g><defs><clipPath id="clip0_1533_10"><path fill="#fff" transform="translate(16 14)" d="M0 0h32v32H0z"/></clipPath></defs></svg>